<svg xmlns="http://www.w3.org/2000/svg" xmlns:xlink="http://www.w3.org/1999/xlink" width="500" zoomAndPan="magnify" viewBox="0 0 375 374.999991" height="500" preserveAspectRatio="xMidYMid meet" version="1.2"><defs><clipPath id="542a7e87e7"><path d="M 62.589844 119 L 277 119 L 277 181 L 62.589844 181 Z M 62.589844 119 "/></clipPath><clipPath id="13166948a0"><path d="M 101 157 L 311.886719 157 L 311.886719 186 L 101 186 Z M 101 157 "/></clipPath></defs><g id="c39f9b30b1"><path style=" stroke:none;fill-rule:nonzero;fill:#ffffff;fill-opacity:1;" d="M 190.949219 113.167969 C 153.710938 112.992188 121.683594 118.90625 117.0625 119.488281 C 109.667969 120.425781 107.242188 125.507812 107.242188 125.507812 L 92.925781 156.902344 C 95.453125 156.59375 98.71875 156.199219 102.585938 155.730469 C 103.457031 96.15625 253.769531 119.164062 258.804688 122.519531 C 237.507812 115.570312 213.292969 113.273438 190.949219 113.167969 Z M 190.949219 113.167969 "/><g clip-rule="nonzero" clip-path="url(#542a7e87e7)"><path style=" stroke:none;fill-rule:nonzero;fill:#ffffff;fill-opacity:1;" d="M 157.554688 121.464844 C 157.554688 121.464844 196.558594 114.769531 258.269531 125.832031 C 257.6875 125.25 270.203125 135.726562 276.898438 157.265625 C 276.605469 156.976562 110.691406 142.714844 62.664062 180.261719 C 63.535156 179.097656 83.328125 158.429688 142.710938 153.191406 C 202.089844 147.953125 272.820312 161.632812 264.378906 141.550781 C 255.9375 121.464844 209.949219 121.464844 157.554688 121.464844 Z M 157.554688 121.464844 "/></g><path style=" stroke:none;fill-rule:nonzero;fill:#ffffff;fill-opacity:1;" d="M 93.808594 156.613281 L 88.785156 161.269531 C 88.785156 161.269531 85.441406 156.976562 74.015625 157.410156 C 62.589844 157.847656 68.847656 145.1875 75.617188 145.042969 C 82.382812 144.894531 88.933594 143.730469 88.421875 147.226562 C 87.914062 150.71875 87.839844 155.300781 86.820312 155.738281 C 85.804688 156.175781 86.894531 145.769531 78.453125 147.371094 C 70.011719 148.972656 71.6875 152.390625 73.796875 153.191406 C 75.90625 153.992188 78.964844 151.957031 81.511719 154.9375 C 84.058594 157.921875 91.550781 159.523438 93.808594 156.613281 Z M 93.808594 156.613281 "/><path style=" stroke:none;fill-rule:nonzero;fill:#ffffff;fill-opacity:1;" d="M 276.375 157.125 L 281.398438 161.78125 C 281.398438 161.78125 284.746094 157.488281 296.167969 157.925781 C 307.59375 158.359375 301.335938 145.699219 294.570312 145.554688 C 287.800781 145.410156 281.25 144.242188 281.761719 147.738281 C 282.269531 151.230469 282.34375 155.816406 283.363281 156.25 C 284.382812 156.6875 283.289062 146.28125 291.730469 147.882812 C 300.171875 149.484375 298.5 152.90625 296.386719 153.703125 C 294.277344 154.503906 291.21875 152.46875 288.671875 155.453125 C 286.128906 158.433594 278.632812 160.035156 276.375 157.125 Z M 276.375 157.125 "/><g clip-rule="nonzero" clip-path="url(#13166948a0)"><path style=" stroke:none;fill-rule:nonzero;fill:#ffffff;fill-opacity:1;" d="M 194.457031 157.847656 C 166.179688 157.945312 135.25 161.042969 101.121094 171.386719 L 101.179688 171.375 C 153.667969 158.804688 214.324219 159.0625 257.875 162.214844 C 257.730469 162.222656 257.664062 162.21875 257.519531 162.226562 C 251.679688 162.527344 248.140625 163.386719 240.375 164.078125 C 232.609375 164.773438 224.804688 165.660156 218.796875 166.742188 C 215.792969 167.28125 213.242188 167.871094 211.351562 168.515625 C 210.40625 168.839844 209.625 169.179688 209.027344 169.542969 C 208.433594 169.910156 207.992188 170.300781 207.8125 170.8125 C 207.628906 171.34375 207.867188 171.910156 208.304688 172.320312 C 263.511719 206.21875 301.160156 141.929688 310.238281 185.535156 C 310.664062 185.503906 311.089844 185.476562 311.492188 185.46875 C 309.640625 172.382812 302.898438 169.15625 300.253906 164.753906 C 299.433594 163.382812 298.339844 162.742188 297.222656 162.640625 C 296.105469 162.539062 295 162.941406 294.019531 163.476562 C 286.796875 168.890625 278 172.277344 269.582031 173.871094 C 260.820312 175.449219 250.910156 176.089844 241.65625 176.082031 C 197.136719 168.0625 249.539062 164.5 271.878906 162.335938 C 248.351562 160.660156 222.730469 157.753906 194.457031 157.847656 Z M 194.457031 157.847656 "/></g><g style="fill:#ffffff;fill-opacity:1;"><g transform="translate(8.37891, 240.219623)"><path style="stroke:none" d="M 34.046875 -21.421875 C 36.191406 -20.828125 37.835938 -19.816406 38.984375 -18.390625 C 40.128906 -16.960938 40.703125 -15.125 40.703125 -12.875 C 40.703125 -8.71875 39.128906 -5.53125 35.984375 -3.3125 C 32.835938 -1.101562 28.492188 0 22.953125 0 L 3.671875 0 L 11.984375 -41.53125 L 29.71875 -41.53125 C 33.757812 -41.53125 36.894531 -40.773438 39.125 -39.265625 C 41.363281 -37.765625 42.484375 -35.570312 42.484375 -32.6875 C 42.484375 -29.882812 41.707031 -27.503906 40.15625 -25.546875 C 38.613281 -23.585938 36.578125 -22.210938 34.046875 -21.421875 Z M 15.609375 -37.90625 L 12.578125 -22.84375 L 25.8125 -22.84375 C 29.488281 -22.84375 32.429688 -23.625 34.640625 -25.1875 C 36.859375 -26.75 37.96875 -28.992188 37.96875 -31.921875 C 37.96875 -33.929688 37.1875 -35.429688 35.625 -36.421875 C 34.0625 -37.410156 31.816406 -37.90625 28.890625 -37.90625 Z M 23.3125 -3.625 C 27.507812 -3.625 30.734375 -4.410156 32.984375 -5.984375 C 35.242188 -7.566406 36.375 -9.84375 36.375 -12.8125 C 36.375 -15.101562 35.570312 -16.742188 33.96875 -17.734375 C 32.363281 -18.722656 29.941406 -19.21875 26.703125 -19.21875 L 11.859375 -19.21875 L 8.78125 -3.625 Z M 23.3125 -3.625 "/></g></g><g style="fill:#ffffff;fill-opacity:1;"><g transform="translate(53.106389, 240.219623)"><path style="stroke:none" d="M 23.015625 0.359375 C 18.984375 0.359375 15.523438 -0.359375 12.640625 -1.796875 C 9.753906 -3.242188 7.554688 -5.265625 6.046875 -7.859375 C 4.546875 -10.453125 3.796875 -13.46875 3.796875 -16.90625 C 3.796875 -21.457031 4.820312 -25.640625 6.875 -29.453125 C 8.9375 -33.273438 11.863281 -36.300781 15.65625 -38.53125 C 19.457031 -40.769531 23.847656 -41.890625 28.828125 -41.890625 C 32.867188 -41.890625 36.332031 -41.164062 39.21875 -39.71875 C 42.101562 -38.269531 44.304688 -36.25 45.828125 -33.65625 C 47.347656 -31.070312 48.109375 -28.0625 48.109375 -24.625 C 48.109375 -20.070312 47.070312 -15.882812 45 -12.0625 C 42.925781 -8.25 39.988281 -5.222656 36.1875 -2.984375 C 32.394531 -0.753906 28.003906 0.359375 23.015625 0.359375 Z M 23.4375 -3.5625 C 27.425781 -3.5625 30.960938 -4.5 34.046875 -6.375 C 37.140625 -8.257812 39.523438 -10.789062 41.203125 -13.96875 C 42.878906 -17.15625 43.71875 -20.644531 43.71875 -24.4375 C 43.71875 -28.550781 42.394531 -31.832031 39.75 -34.28125 C 37.101562 -36.738281 33.328125 -37.96875 28.421875 -37.96875 C 24.421875 -37.96875 20.878906 -37.023438 17.796875 -35.140625 C 14.710938 -33.265625 12.328125 -30.734375 10.640625 -27.546875 C 8.960938 -24.367188 8.125 -20.898438 8.125 -17.140625 C 8.125 -12.992188 9.445312 -9.691406 12.09375 -7.234375 C 14.75 -4.785156 18.53125 -3.5625 23.4375 -3.5625 Z M 23.4375 -3.5625 "/></g></g><g style="fill:#ffffff;fill-opacity:1;"><g transform="translate(102.876088, 240.219623)"><path style="stroke:none" d="M 11.984375 -41.53125 L 27.765625 -41.53125 C 31.878906 -41.53125 35.410156 -40.835938 38.359375 -39.453125 C 41.304688 -38.066406 43.539062 -36.097656 45.0625 -33.546875 C 46.582031 -30.992188 47.34375 -28.019531 47.34375 -24.625 C 47.34375 -19.800781 46.273438 -15.53125 44.140625 -11.8125 C 42.003906 -8.09375 38.988281 -5.191406 35.09375 -3.109375 C 31.195312 -1.035156 26.675781 0 21.53125 0 L 3.671875 0 Z M 21.65625 -3.796875 C 25.96875 -3.796875 29.734375 -4.675781 32.953125 -6.4375 C 36.179688 -8.195312 38.65625 -10.640625 40.375 -13.765625 C 42.09375 -16.890625 42.953125 -20.445312 42.953125 -24.4375 C 42.953125 -28.550781 41.625 -31.796875 38.96875 -34.171875 C 36.320312 -36.546875 32.429688 -37.734375 27.296875 -37.734375 L 15.546875 -37.734375 L 8.78125 -3.796875 Z M 21.65625 -3.796875 "/></g></g><g style="fill:#ffffff;fill-opacity:1;"><g transform="translate(151.874628, 240.219623)"><path style="stroke:none" d="M 20.640625 -14 L 17.859375 0 L 13.53125 0 L 16.375 -14.296875 L 5.21875 -41.53125 L 9.609375 -41.53125 L 19.21875 -18.15625 L 38.09375 -41.53125 L 42.78125 -41.53125 Z M 20.640625 -14 "/></g></g><g style="fill:#ffffff;fill-opacity:1;"><g transform="translate(189.543003, 240.219623)"><path style="stroke:none" d="M 15.78125 0.359375 C 12.738281 0.359375 9.820312 -0.132812 7.03125 -1.125 C 4.238281 -2.113281 2.132812 -3.378906 0.71875 -4.921875 L 2.84375 -8.359375 C 4.226562 -6.859375 6.144531 -5.648438 8.59375 -4.734375 C 11.050781 -3.828125 13.585938 -3.375 16.203125 -3.375 C 19.878906 -3.375 22.832031 -4.097656 25.0625 -5.546875 C 27.300781 -6.992188 28.421875 -9 28.421875 -11.5625 C 28.421875 -12.945312 28.003906 -14.070312 27.171875 -14.9375 C 26.335938 -15.8125 25.285156 -16.515625 24.015625 -17.046875 C 22.753906 -17.585938 21.035156 -18.175781 18.859375 -18.8125 C 16.296875 -19.5625 14.210938 -20.28125 12.609375 -20.96875 C 11.003906 -21.664062 9.640625 -22.695312 8.515625 -24.0625 C 7.390625 -25.425781 6.828125 -27.195312 6.828125 -29.375 C 6.828125 -31.9375 7.523438 -34.15625 8.921875 -36.03125 C 10.328125 -37.914062 12.285156 -39.363281 14.796875 -40.375 C 17.304688 -41.382812 20.1875 -41.890625 23.4375 -41.890625 C 25.925781 -41.890625 28.296875 -41.582031 30.546875 -40.96875 C 32.804688 -40.351562 34.726562 -39.472656 36.3125 -38.328125 L 34.46875 -34.765625 C 32.96875 -35.867188 31.25 -36.707031 29.3125 -37.28125 C 27.375 -37.851562 25.335938 -38.140625 23.203125 -38.140625 C 19.554688 -38.140625 16.625 -37.390625 14.40625 -35.890625 C 12.195312 -34.390625 11.09375 -32.351562 11.09375 -29.78125 C 11.09375 -28.351562 11.523438 -27.1875 12.390625 -26.28125 C 13.265625 -25.375 14.34375 -24.648438 15.625 -24.109375 C 16.914062 -23.578125 18.648438 -22.992188 20.828125 -22.359375 C 23.398438 -21.609375 25.472656 -20.882812 27.046875 -20.1875 C 28.628906 -19.5 29.972656 -18.515625 31.078125 -17.234375 C 32.191406 -15.953125 32.75 -14.257812 32.75 -12.15625 C 32.75 -9.550781 32.023438 -7.304688 30.578125 -5.421875 C 29.140625 -3.546875 27.144531 -2.113281 24.59375 -1.125 C 22.039062 -0.132812 19.101562 0.359375 15.78125 0.359375 Z M 15.78125 0.359375 "/></g></g><g style="fill:#ffffff;fill-opacity:1;"><g transform="translate(226.024968, 240.219623)"><path style="stroke:none" d="M 46.625 -41.53125 L 38.328125 0 L 34 0 L 37.796875 -19.109375 L 11.8125 -19.109375 L 8.015625 0 L 3.671875 0 L 11.984375 -41.53125 L 16.3125 -41.53125 L 12.640625 -23.078125 L 38.625 -23.078125 L 42.296875 -41.53125 Z M 46.625 -41.53125 "/></g></g><g style="fill:#ffffff;fill-opacity:1;"><g transform="translate(274.252336, 240.219623)"><path style="stroke:none" d="M 23.015625 0.359375 C 18.984375 0.359375 15.523438 -0.359375 12.640625 -1.796875 C 9.753906 -3.242188 7.554688 -5.265625 6.046875 -7.859375 C 4.546875 -10.453125 3.796875 -13.46875 3.796875 -16.90625 C 3.796875 -21.457031 4.820312 -25.640625 6.875 -29.453125 C 8.9375 -33.273438 11.863281 -36.300781 15.65625 -38.53125 C 19.457031 -40.769531 23.847656 -41.890625 28.828125 -41.890625 C 32.867188 -41.890625 36.332031 -41.164062 39.21875 -39.71875 C 42.101562 -38.269531 44.304688 -36.25 45.828125 -33.65625 C 47.347656 -31.070312 48.109375 -28.0625 48.109375 -24.625 C 48.109375 -20.070312 47.070312 -15.882812 45 -12.0625 C 42.925781 -8.25 39.988281 -5.222656 36.1875 -2.984375 C 32.394531 -0.753906 28.003906 0.359375 23.015625 0.359375 Z M 23.4375 -3.5625 C 27.425781 -3.5625 30.960938 -4.5 34.046875 -6.375 C 37.140625 -8.257812 39.523438 -10.789062 41.203125 -13.96875 C 42.878906 -17.15625 43.71875 -20.644531 43.71875 -24.4375 C 43.71875 -28.550781 42.394531 -31.832031 39.75 -34.28125 C 37.101562 -36.738281 33.328125 -37.96875 28.421875 -37.96875 C 24.421875 -37.96875 20.878906 -37.023438 17.796875 -35.140625 C 14.710938 -33.265625 12.328125 -30.734375 10.640625 -27.546875 C 8.960938 -24.367188 8.125 -20.898438 8.125 -17.140625 C 8.125 -12.992188 9.445312 -9.691406 12.09375 -7.234375 C 14.75 -4.785156 18.53125 -3.5625 23.4375 -3.5625 Z M 23.4375 -3.5625 "/></g></g><g style="fill:#ffffff;fill-opacity:1;"><g transform="translate(324.022047, 240.219623)"><path style="stroke:none" d="M 26.875 -41.53125 C 31.539062 -41.53125 35.175781 -40.5 37.78125 -38.4375 C 40.394531 -36.382812 41.703125 -33.5 41.703125 -29.78125 C 41.703125 -24.476562 39.988281 -20.375 36.5625 -17.46875 C 33.144531 -14.5625 28.429688 -13.109375 22.421875 -13.109375 L 10.671875 -13.109375 L 8.015625 0 L 3.671875 0 L 11.984375 -41.53125 Z M 22.484375 -16.96875 C 27.234375 -16.96875 30.890625 -18.015625 33.453125 -20.109375 C 36.023438 -22.203125 37.3125 -25.289062 37.3125 -29.375 C 37.3125 -32.101562 36.378906 -34.175781 34.515625 -35.59375 C 32.660156 -37.019531 29.992188 -37.734375 26.515625 -37.734375 L 15.609375 -37.734375 L 11.390625 -16.96875 Z M 22.484375 -16.96875 "/></g></g><g style="fill:#ffffff;fill-opacity:1;"><g transform="translate(114.394238, 273.812032)"><path style="stroke:none" d="M 6.296875 0.234375 C 5.179688 0.234375 4.101562 0.0859375 3.0625 -0.203125 C 2.019531 -0.503906 1.1875 -0.898438 0.5625 -1.390625 L 1.671875 -3.84375 C 2.273438 -3.394531 2.988281 -3.035156 3.8125 -2.765625 C 4.644531 -2.503906 5.476562 -2.375 6.3125 -2.375 C 7.238281 -2.375 7.921875 -2.507812 8.359375 -2.78125 C 8.796875 -3.050781 9.015625 -3.414062 9.015625 -3.875 C 9.015625 -4.207031 8.882812 -4.484375 8.625 -4.703125 C 8.363281 -4.929688 8.03125 -5.113281 7.625 -5.25 C 7.21875 -5.382812 6.664062 -5.53125 5.96875 -5.6875 C 4.894531 -5.9375 4.015625 -6.1875 3.328125 -6.4375 C 2.648438 -6.695312 2.066406 -7.109375 1.578125 -7.671875 C 1.085938 -8.234375 0.84375 -8.984375 0.84375 -9.921875 C 0.84375 -10.742188 1.0625 -11.484375 1.5 -12.140625 C 1.945312 -12.804688 2.613281 -13.332031 3.5 -13.71875 C 4.394531 -14.113281 5.484375 -14.3125 6.765625 -14.3125 C 7.671875 -14.3125 8.550781 -14.203125 9.40625 -13.984375 C 10.257812 -13.765625 11.007812 -13.457031 11.65625 -13.0625 L 10.65625 -10.59375 C 9.351562 -11.320312 8.050781 -11.6875 6.75 -11.6875 C 5.84375 -11.6875 5.171875 -11.539062 4.734375 -11.25 C 4.296875 -10.957031 4.078125 -10.570312 4.078125 -10.09375 C 4.078125 -9.601562 4.328125 -9.238281 4.828125 -9 C 5.335938 -8.769531 6.109375 -8.539062 7.140625 -8.3125 C 8.203125 -8.0625 9.078125 -7.804688 9.765625 -7.546875 C 10.453125 -7.296875 11.035156 -6.894531 11.515625 -6.34375 C 12.003906 -5.800781 12.25 -5.0625 12.25 -4.125 C 12.25 -3.3125 12.023438 -2.570312 11.578125 -1.90625 C 11.128906 -1.25 10.457031 -0.726562 9.5625 -0.34375 C 8.664062 0.0390625 7.578125 0.234375 6.296875 0.234375 Z M 6.296875 0.234375 "/></g></g><g style="fill:#ffffff;fill-opacity:1;"><g transform="translate(130.142657, 273.812032)"><path style="stroke:none" d="M 8.484375 0.234375 C 7.023438 0.234375 5.707031 -0.078125 4.53125 -0.703125 C 3.351562 -1.328125 2.429688 -2.191406 1.765625 -3.296875 C 1.109375 -4.410156 0.78125 -5.65625 0.78125 -7.03125 C 0.78125 -8.414062 1.109375 -9.660156 1.765625 -10.765625 C 2.429688 -11.867188 3.351562 -12.734375 4.53125 -13.359375 C 5.707031 -13.992188 7.023438 -14.3125 8.484375 -14.3125 C 9.941406 -14.3125 11.253906 -13.992188 12.421875 -13.359375 C 13.585938 -12.734375 14.503906 -11.867188 15.171875 -10.765625 C 15.835938 -9.660156 16.171875 -8.414062 16.171875 -7.03125 C 16.171875 -5.65625 15.835938 -4.410156 15.171875 -3.296875 C 14.503906 -2.191406 13.585938 -1.328125 12.421875 -0.703125 C 11.253906 -0.078125 9.941406 0.234375 8.484375 0.234375 Z M 8.484375 -2.53125 C 9.304688 -2.53125 10.050781 -2.71875 10.71875 -3.09375 C 11.394531 -3.476562 11.921875 -4.015625 12.296875 -4.703125 C 12.679688 -5.390625 12.875 -6.164062 12.875 -7.03125 C 12.875 -7.90625 12.679688 -8.679688 12.296875 -9.359375 C 11.921875 -10.046875 11.394531 -10.578125 10.71875 -10.953125 C 10.050781 -11.335938 9.304688 -11.53125 8.484375 -11.53125 C 7.648438 -11.53125 6.894531 -11.335938 6.21875 -10.953125 C 5.550781 -10.578125 5.023438 -10.046875 4.640625 -9.359375 C 4.265625 -8.679688 4.078125 -7.90625 4.078125 -7.03125 C 4.078125 -6.164062 4.265625 -5.390625 4.640625 -4.703125 C 5.023438 -4.015625 5.550781 -3.476562 6.21875 -3.09375 C 6.894531 -2.71875 7.648438 -2.53125 8.484375 -2.53125 Z M 8.484375 -2.53125 "/></g></g><g style="fill:#ffffff;fill-opacity:1;"><g transform="translate(150.028791, 273.812032)"><path style="stroke:none" d="M 1.671875 -14.0625 L 4.921875 -14.0625 L 4.921875 -2.65625 L 11.96875 -2.65625 L 11.96875 0 L 1.671875 0 Z M 1.671875 -14.0625 "/></g></g><g style="fill:#ffffff;fill-opacity:1;"><g transform="translate(165.094285, 273.812032)"><path style="stroke:none" d="M 7.921875 0.234375 C 5.910156 0.234375 4.34375 -0.316406 3.21875 -1.421875 C 2.101562 -2.535156 1.546875 -4.125 1.546875 -6.1875 L 1.546875 -14.0625 L 4.796875 -14.0625 L 4.796875 -6.3125 C 4.796875 -3.789062 5.84375 -2.53125 7.9375 -2.53125 C 8.957031 -2.53125 9.734375 -2.832031 10.265625 -3.4375 C 10.804688 -4.050781 11.078125 -5.007812 11.078125 -6.3125 L 11.078125 -14.0625 L 14.28125 -14.0625 L 14.28125 -6.1875 C 14.28125 -4.125 13.722656 -2.535156 12.609375 -1.421875 C 11.492188 -0.316406 9.929688 0.234375 7.921875 0.234375 Z M 7.921875 0.234375 "/></g></g><g style="fill:#ffffff;fill-opacity:1;"><g transform="translate(183.855602, 273.812032)"><path style="stroke:none" d="M 4.578125 -11.40625 L 0.078125 -11.40625 L 0.078125 -14.0625 L 12.34375 -14.0625 L 12.34375 -11.40625 L 7.84375 -11.40625 L 7.84375 0 L 4.578125 0 Z M 4.578125 -11.40625 "/></g></g><g style="fill:#ffffff;fill-opacity:1;"><g transform="translate(199.2023, 273.812032)"><path style="stroke:none" d="M 1.671875 -14.0625 L 4.921875 -14.0625 L 4.921875 0 L 1.671875 0 Z M 1.671875 -14.0625 "/></g></g><g style="fill:#ffffff;fill-opacity:1;"><g transform="translate(208.724058, 273.812032)"><path style="stroke:none" d="M 8.484375 0.234375 C 7.023438 0.234375 5.707031 -0.078125 4.53125 -0.703125 C 3.351562 -1.328125 2.429688 -2.191406 1.765625 -3.296875 C 1.109375 -4.410156 0.78125 -5.65625 0.78125 -7.03125 C 0.78125 -8.414062 1.109375 -9.660156 1.765625 -10.765625 C 2.429688 -11.867188 3.351562 -12.734375 4.53125 -13.359375 C 5.707031 -13.992188 7.023438 -14.3125 8.484375 -14.3125 C 9.941406 -14.3125 11.253906 -13.992188 12.421875 -13.359375 C 13.585938 -12.734375 14.503906 -11.867188 15.171875 -10.765625 C 15.835938 -9.660156 16.171875 -8.414062 16.171875 -7.03125 C 16.171875 -5.65625 15.835938 -4.410156 15.171875 -3.296875 C 14.503906 -2.191406 13.585938 -1.328125 12.421875 -0.703125 C 11.253906 -0.078125 9.941406 0.234375 8.484375 0.234375 Z M 8.484375 -2.53125 C 9.304688 -2.53125 10.050781 -2.71875 10.71875 -3.09375 C 11.394531 -3.476562 11.921875 -4.015625 12.296875 -4.703125 C 12.679688 -5.390625 12.875 -6.164062 12.875 -7.03125 C 12.875 -7.90625 12.679688 -8.679688 12.296875 -9.359375 C 11.921875 -10.046875 11.394531 -10.578125 10.71875 -10.953125 C 10.050781 -11.335938 9.304688 -11.53125 8.484375 -11.53125 C 7.648438 -11.53125 6.894531 -11.335938 6.21875 -10.953125 C 5.550781 -10.578125 5.023438 -10.046875 4.640625 -9.359375 C 4.265625 -8.679688 4.078125 -7.90625 4.078125 -7.03125 C 4.078125 -6.164062 4.265625 -5.390625 4.640625 -4.703125 C 5.023438 -4.015625 5.550781 -3.476562 6.21875 -3.09375 C 6.894531 -2.71875 7.648438 -2.53125 8.484375 -2.53125 Z M 8.484375 -2.53125 "/></g></g><g style="fill:#ffffff;fill-opacity:1;"><g transform="translate(228.610192, 273.812032)"><path style="stroke:none" d="M 14.5625 -14.0625 L 14.5625 0 L 11.890625 0 L 4.875 -8.546875 L 4.875 0 L 1.671875 0 L 1.671875 -14.0625 L 4.359375 -14.0625 L 11.359375 -5.53125 L 11.359375 -14.0625 Z M 14.5625 -14.0625 "/></g></g><g style="fill:#ffffff;fill-opacity:1;"><g transform="translate(247.773231, 273.812032)"><path style="stroke:none" d="M 6.296875 0.234375 C 5.179688 0.234375 4.101562 0.0859375 3.0625 -0.203125 C 2.019531 -0.503906 1.1875 -0.898438 0.5625 -1.390625 L 1.671875 -3.84375 C 2.273438 -3.394531 2.988281 -3.035156 3.8125 -2.765625 C 4.644531 -2.503906 5.476562 -2.375 6.3125 -2.375 C 7.238281 -2.375 7.921875 -2.507812 8.359375 -2.78125 C 8.796875 -3.050781 9.015625 -3.414062 9.015625 -3.875 C 9.015625 -4.207031 8.882812 -4.484375 8.625 -4.703125 C 8.363281 -4.929688 8.03125 -5.113281 7.625 -5.25 C 7.21875 -5.382812 6.664062 -5.53125 5.96875 -5.6875 C 4.894531 -5.9375 4.015625 -6.1875 3.328125 -6.4375 C 2.648438 -6.695312 2.066406 -7.109375 1.578125 -7.671875 C 1.085938 -8.234375 0.84375 -8.984375 0.84375 -9.921875 C 0.84375 -10.742188 1.0625 -11.484375 1.5 -12.140625 C 1.945312 -12.804688 2.613281 -13.332031 3.5 -13.71875 C 4.394531 -14.113281 5.484375 -14.3125 6.765625 -14.3125 C 7.671875 -14.3125 8.550781 -14.203125 9.40625 -13.984375 C 10.257812 -13.765625 11.007812 -13.457031 11.65625 -13.0625 L 10.65625 -10.59375 C 9.351562 -11.320312 8.050781 -11.6875 6.75 -11.6875 C 5.84375 -11.6875 5.171875 -11.539062 4.734375 -11.25 C 4.296875 -10.957031 4.078125 -10.570312 4.078125 -10.09375 C 4.078125 -9.601562 4.328125 -9.238281 4.828125 -9 C 5.335938 -8.769531 6.109375 -8.539062 7.140625 -8.3125 C 8.203125 -8.0625 9.078125 -7.804688 9.765625 -7.546875 C 10.453125 -7.296875 11.035156 -6.894531 11.515625 -6.34375 C 12.003906 -5.800781 12.25 -5.0625 12.25 -4.125 C 12.25 -3.3125 12.023438 -2.570312 11.578125 -1.90625 C 11.128906 -1.25 10.457031 -0.726562 9.5625 -0.34375 C 8.664062 0.0390625 7.578125 0.234375 6.296875 0.234375 Z M 6.296875 0.234375 "/></g></g><path style="fill:none;stroke-width:3;stroke-linecap:butt;stroke-linejoin:miter;stroke:#ffffff;stroke-opacity:1;stroke-miterlimit:4;" d="M -0.000712279 1.501799 L 58.299202 1.501799 " transform="matrix(1.073718,-0.000000000000001065,0.000000000000001065,1.073718,30.36014,263.391398)"/><path style="fill:none;stroke-width:3;stroke-linecap:butt;stroke-linejoin:miter;stroke:#ffffff;stroke-opacity:1;stroke-miterlimit:4;" d="M 0.000131738 1.501799 L 58.300046 1.501799 " transform="matrix(1.073718,-0.000000000000001065,0.000000000000001065,1.073718,281.722515,263.391398)"/></g></svg>