<svg xmlns="http://www.w3.org/2000/svg" xmlns:xlink="http://www.w3.org/1999/xlink" width="60" zoomAndPan="magnify" viewBox="0 0 45 44.999999" height="60" preserveAspectRatio="xMidYMid meet" version="1.2"><defs><clipPath id="6ae138cc85"><path d="M 0.429688 16 L 39 16 L 39 28 L 0.429688 28 Z M 0.429688 16 "/></clipPath><clipPath id="066e01b026"><path d="M 7 23 L 44.679688 23 L 44.679688 29 L 7 29 Z M 7 23 "/></clipPath></defs><g id="7304923043"><path style=" stroke:none;fill-rule:nonzero;fill:#ffffff;fill-opacity:1;" d="M 23.175781 15.753906 C 16.578125 15.722656 10.902344 16.769531 10.085938 16.875 C 8.777344 17.039062 8.34375 17.941406 8.34375 17.941406 L 5.808594 23.503906 C 6.257812 23.449219 6.835938 23.378906 7.519531 23.296875 C 7.675781 12.742188 34.308594 16.816406 35.199219 17.410156 C 31.425781 16.179688 27.136719 15.773438 23.175781 15.753906 Z M 23.175781 15.753906 "/><g clip-rule="nonzero" clip-path="url(#6ae138cc85)"><path style=" stroke:none;fill-rule:nonzero;fill:#ffffff;fill-opacity:1;" d="M 17.257812 17.226562 C 17.257812 17.226562 24.171875 16.039062 35.105469 18 C 35 17.894531 37.21875 19.75 38.40625 23.566406 C 38.351562 23.515625 8.957031 20.988281 0.445312 27.640625 C 0.601562 27.4375 4.109375 23.773438 14.628906 22.847656 C 25.148438 21.917969 37.683594 24.34375 36.1875 20.785156 C 34.691406 17.226562 26.542969 17.226562 17.257812 17.226562 Z M 17.257812 17.226562 "/></g><path style=" stroke:none;fill-rule:nonzero;fill:#ffffff;fill-opacity:1;" d="M 5.964844 23.453125 L 5.074219 24.277344 C 5.074219 24.277344 4.480469 23.515625 2.457031 23.59375 C 0.433594 23.671875 1.542969 21.429688 2.742188 21.402344 C 3.941406 21.375 5.101562 21.171875 5.011719 21.789062 C 4.921875 22.40625 4.90625 23.21875 4.726562 23.296875 C 4.546875 23.375 4.738281 21.53125 3.246094 21.816406 C 1.75 22.097656 2.046875 22.703125 2.417969 22.847656 C 2.792969 22.988281 3.335938 22.628906 3.785156 23.15625 C 4.238281 23.683594 5.566406 23.96875 5.964844 23.453125 Z M 5.964844 23.453125 "/><path style=" stroke:none;fill-rule:nonzero;fill:#ffffff;fill-opacity:1;" d="M 38.3125 23.542969 L 39.203125 24.367188 C 39.203125 24.367188 39.796875 23.605469 41.820312 23.683594 C 43.84375 23.761719 42.734375 21.519531 41.535156 21.492188 C 40.335938 21.46875 39.175781 21.261719 39.265625 21.878906 C 39.355469 22.5 39.371094 23.3125 39.550781 23.386719 C 39.730469 23.464844 39.539062 21.621094 41.03125 21.90625 C 42.527344 22.1875 42.230469 22.796875 41.859375 22.9375 C 41.484375 23.078125 40.941406 22.71875 40.492188 23.246094 C 40.039062 23.773438 38.710938 24.058594 38.3125 23.542969 Z M 38.3125 23.542969 "/><g clip-rule="nonzero" clip-path="url(#066e01b026)"><path style=" stroke:none;fill-rule:nonzero;fill:#ffffff;fill-opacity:1;" d="M 23.796875 23.671875 C 18.789062 23.6875 13.308594 24.238281 7.261719 26.070312 L 7.269531 26.066406 C 16.570312 23.839844 27.316406 23.886719 35.035156 24.445312 C 35.007812 24.445312 34.996094 24.445312 34.972656 24.445312 C 33.9375 24.5 33.308594 24.652344 31.933594 24.773438 C 30.558594 24.898438 29.175781 25.054688 28.109375 25.246094 C 27.578125 25.34375 27.125 25.445312 26.792969 25.5625 C 26.625 25.617188 26.484375 25.679688 26.378906 25.742188 C 26.273438 25.808594 26.195312 25.878906 26.164062 25.96875 C 26.132812 26.0625 26.171875 26.164062 26.25 26.234375 C 36.03125 32.242188 42.703125 20.851562 44.3125 28.578125 C 44.386719 28.570312 44.460938 28.566406 44.535156 28.566406 C 44.207031 26.246094 43.011719 25.675781 42.542969 24.894531 C 42.398438 24.652344 42.203125 24.539062 42.007812 24.519531 C 41.808594 24.503906 41.613281 24.574219 41.4375 24.667969 C 40.160156 25.628906 38.601562 26.226562 37.109375 26.511719 C 35.554688 26.789062 33.800781 26.902344 32.160156 26.902344 C 24.273438 25.480469 33.558594 24.847656 37.515625 24.464844 C 33.347656 24.167969 28.808594 23.65625 23.796875 23.671875 Z M 23.796875 23.671875 "/></g></g></svg>