<svg xmlns="http://www.w3.org/2000/svg" xmlns:xlink="http://www.w3.org/1999/xlink" width="200" zoomAndPan="magnify" viewBox="0 0 150 44.999999" height="60" preserveAspectRatio="xMidYMid meet" version="1.2"><defs><clipPath id="42279f61d4"><path d="M 46.796875 7 L 96 7 L 96 21 L 46.796875 21 Z M 46.796875 7 "/></clipPath></defs><g id="4e45805073"><path style=" stroke:none;fill-rule:nonzero;fill:#ffffff;fill-opacity:1;" d="M 75.777344 5.714844 C 67.371094 5.675781 60.136719 7.011719 59.09375 7.144531 C 57.425781 7.355469 56.878906 8.503906 56.878906 8.503906 L 53.644531 15.589844 C 54.214844 15.523438 54.953125 15.433594 55.828125 15.324219 C 56.023438 1.875 89.964844 7.070312 91.101562 7.828125 C 86.292969 6.257812 80.824219 5.738281 75.777344 5.714844 Z M 75.777344 5.714844 "/><g clip-rule="nonzero" clip-path="url(#42279f61d4)"><path style=" stroke:none;fill-rule:nonzero;fill:#ffffff;fill-opacity:1;" d="M 68.238281 7.589844 C 68.238281 7.589844 77.046875 6.078125 90.980469 8.574219 C 90.847656 8.445312 93.675781 10.808594 95.1875 15.671875 C 95.121094 15.609375 57.65625 12.386719 46.8125 20.867188 C 47.007812 20.601562 51.476562 15.9375 64.886719 14.753906 C 78.292969 13.570312 94.265625 16.660156 92.359375 12.125 C 90.453125 7.589844 80.070312 7.589844 68.238281 7.589844 Z M 68.238281 7.589844 "/></g><path style=" stroke:none;fill-rule:nonzero;fill:#ffffff;fill-opacity:1;" d="M 53.84375 15.527344 L 52.710938 16.578125 C 52.710938 16.578125 51.953125 15.609375 49.375 15.707031 C 46.796875 15.804688 48.207031 12.945312 49.738281 12.914062 C 51.265625 12.878906 52.742188 12.617188 52.628906 13.40625 C 52.511719 14.195312 52.496094 15.230469 52.265625 15.328125 C 52.035156 15.425781 52.285156 13.078125 50.378906 13.4375 C 48.472656 13.800781 48.847656 14.574219 49.324219 14.753906 C 49.800781 14.933594 50.492188 14.472656 51.066406 15.148438 C 51.644531 15.820312 53.335938 16.183594 53.84375 15.527344 Z M 53.84375 15.527344 "/><path style=" stroke:none;fill-rule:nonzero;fill:#ffffff;fill-opacity:1;" d="M 95.066406 15.640625 L 96.203125 16.691406 C 96.203125 16.691406 96.957031 15.722656 99.539062 15.820312 C 102.117188 15.921875 100.703125 13.0625 99.175781 13.027344 C 97.648438 12.996094 96.167969 12.734375 96.285156 13.523438 C 96.398438 14.308594 96.414062 15.34375 96.644531 15.445312 C 96.875 15.542969 96.628906 13.191406 98.535156 13.554688 C 100.441406 13.917969 100.0625 14.6875 99.585938 14.867188 C 99.109375 15.050781 98.421875 14.589844 97.84375 15.261719 C 97.269531 15.9375 95.578125 16.296875 95.066406 15.640625 Z M 95.066406 15.640625 "/><path style=" stroke:none;fill-rule:nonzero;fill:#ffffff;fill-opacity:1;" d="M 76.570312 15.804688 C 70.1875 15.828125 63.203125 16.527344 55.496094 18.859375 L 55.507812 18.859375 C 67.359375 16.019531 81.058594 16.078125 90.890625 16.789062 C 90.859375 16.792969 90.84375 16.792969 90.808594 16.792969 C 89.492188 16.859375 88.691406 17.054688 86.941406 17.210938 C 85.1875 17.367188 83.421875 17.566406 82.066406 17.8125 C 81.386719 17.933594 80.8125 18.066406 80.386719 18.214844 C 80.171875 18.285156 79.996094 18.363281 79.859375 18.445312 C 79.726562 18.527344 79.628906 18.617188 79.585938 18.730469 C 79.546875 18.851562 79.597656 18.980469 79.699219 19.074219 C 92.164062 26.726562 100.664062 12.210938 102.714844 22.054688 C 102.8125 22.050781 102.90625 22.042969 102.996094 22.042969 C 102.578125 19.085938 101.054688 18.359375 100.460938 17.363281 C 100.273438 17.054688 100.027344 16.910156 99.773438 16.886719 C 99.523438 16.863281 99.273438 16.953125 99.050781 17.074219 C 97.421875 18.296875 95.433594 19.0625 93.535156 19.421875 C 91.554688 19.777344 89.316406 19.925781 87.226562 19.921875 C 77.175781 18.109375 89.007812 17.304688 94.050781 16.816406 C 88.742188 16.441406 82.953125 15.78125 76.570312 15.804688 Z M 76.570312 15.804688 "/><g style="fill:#ffffff;fill-opacity:1;"><g transform="translate(34.549299, 33.848046)"><path style="stroke:none" d="M 7.6875 -4.828125 C 8.164062 -4.703125 8.535156 -4.476562 8.796875 -4.15625 C 9.054688 -3.832031 9.1875 -3.414062 9.1875 -2.90625 C 9.1875 -1.96875 8.832031 -1.25 8.125 -0.75 C 7.414062 -0.25 6.4375 0 5.1875 0 L 0.828125 0 L 2.703125 -9.375 L 6.703125 -9.375 C 7.617188 -9.375 8.328125 -9.203125 8.828125 -8.859375 C 9.335938 -8.523438 9.59375 -8.03125 9.59375 -7.375 C 9.59375 -6.738281 9.414062 -6.203125 9.0625 -5.765625 C 8.71875 -5.328125 8.257812 -5.015625 7.6875 -4.828125 Z M 3.515625 -8.5625 L 2.84375 -5.15625 L 5.828125 -5.15625 C 6.648438 -5.15625 7.3125 -5.332031 7.8125 -5.6875 C 8.3125 -6.039062 8.5625 -6.546875 8.5625 -7.203125 C 8.5625 -7.660156 8.382812 -8 8.03125 -8.21875 C 7.6875 -8.445312 7.179688 -8.5625 6.515625 -8.5625 Z M 5.265625 -0.8125 C 6.210938 -0.8125 6.9375 -0.988281 7.4375 -1.34375 C 7.945312 -1.707031 8.203125 -2.222656 8.203125 -2.890625 C 8.203125 -3.410156 8.019531 -3.78125 7.65625 -4 C 7.300781 -4.226562 6.757812 -4.34375 6.03125 -4.34375 L 2.671875 -4.34375 L 1.984375 -0.8125 Z M 5.265625 -0.8125 "/></g></g><g style="fill:#ffffff;fill-opacity:1;"><g transform="translate(44.648823, 33.848046)"><path style="stroke:none" d="M 5.203125 0.078125 C 4.285156 0.078125 3.5 -0.0820312 2.84375 -0.40625 C 2.195312 -0.726562 1.703125 -1.179688 1.359375 -1.765625 C 1.023438 -2.359375 0.859375 -3.039062 0.859375 -3.8125 C 0.859375 -4.84375 1.085938 -5.785156 1.546875 -6.640625 C 2.015625 -7.503906 2.675781 -8.1875 3.53125 -8.6875 C 4.394531 -9.195312 5.382812 -9.453125 6.5 -9.453125 C 7.414062 -9.453125 8.195312 -9.285156 8.84375 -8.953125 C 9.5 -8.628906 10 -8.175781 10.34375 -7.59375 C 10.6875 -7.007812 10.859375 -6.332031 10.859375 -5.5625 C 10.859375 -4.53125 10.625 -3.582031 10.15625 -2.71875 C 9.6875 -1.863281 9.019531 -1.179688 8.15625 -0.671875 C 7.300781 -0.171875 6.316406 0.078125 5.203125 0.078125 Z M 5.296875 -0.796875 C 6.191406 -0.796875 6.988281 -1.007812 7.6875 -1.4375 C 8.382812 -1.863281 8.921875 -2.4375 9.296875 -3.15625 C 9.679688 -3.875 9.875 -4.660156 9.875 -5.515625 C 9.875 -6.441406 9.570312 -7.179688 8.96875 -7.734375 C 8.375 -8.285156 7.523438 -8.5625 6.421875 -8.5625 C 5.515625 -8.5625 4.710938 -8.347656 4.015625 -7.921875 C 3.316406 -7.503906 2.773438 -6.9375 2.390625 -6.21875 C 2.015625 -5.5 1.828125 -4.71875 1.828125 -3.875 C 1.828125 -2.9375 2.125 -2.1875 2.71875 -1.625 C 3.320312 -1.070312 4.179688 -0.796875 5.296875 -0.796875 Z M 5.296875 -0.796875 "/></g></g><g style="fill:#ffffff;fill-opacity:1;"><g transform="translate(55.886885, 33.848046)"><path style="stroke:none" d="M 2.703125 -9.375 L 6.265625 -9.375 C 7.191406 -9.375 7.988281 -9.21875 8.65625 -8.90625 C 9.320312 -8.59375 9.828125 -8.144531 10.171875 -7.5625 C 10.515625 -6.988281 10.6875 -6.320312 10.6875 -5.5625 C 10.6875 -4.46875 10.441406 -3.5 9.953125 -2.65625 C 9.472656 -1.820312 8.789062 -1.171875 7.90625 -0.703125 C 7.03125 -0.234375 6.015625 0 4.859375 0 L 0.828125 0 Z M 4.890625 -0.859375 C 5.859375 -0.859375 6.707031 -1.054688 7.4375 -1.453125 C 8.164062 -1.847656 8.722656 -2.398438 9.109375 -3.109375 C 9.492188 -3.816406 9.6875 -4.617188 9.6875 -5.515625 C 9.6875 -6.441406 9.390625 -7.171875 8.796875 -7.703125 C 8.203125 -8.242188 7.320312 -8.515625 6.15625 -8.515625 L 3.515625 -8.515625 L 1.984375 -0.859375 Z M 4.890625 -0.859375 "/></g></g><g style="fill:#ffffff;fill-opacity:1;"><g transform="translate(66.950814, 33.848046)"><path style="stroke:none" d="M 4.65625 -3.15625 L 4.03125 0 L 3.046875 0 L 3.703125 -3.234375 L 1.171875 -9.375 L 2.171875 -9.375 L 4.34375 -4.09375 L 8.59375 -9.375 L 9.65625 -9.375 Z M 4.65625 -3.15625 "/></g></g><g style="fill:#ffffff;fill-opacity:1;"><g transform="translate(75.456383, 33.848046)"><path style="stroke:none" d="M 3.5625 0.078125 C 2.875 0.078125 2.210938 -0.03125 1.578125 -0.25 C 0.953125 -0.476562 0.476562 -0.765625 0.15625 -1.109375 L 0.640625 -1.890625 C 0.953125 -1.546875 1.382812 -1.269531 1.9375 -1.0625 C 2.488281 -0.863281 3.0625 -0.765625 3.65625 -0.765625 C 4.488281 -0.765625 5.15625 -0.925781 5.65625 -1.25 C 6.164062 -1.570312 6.421875 -2.023438 6.421875 -2.609375 C 6.421875 -2.921875 6.328125 -3.175781 6.140625 -3.375 C 5.953125 -3.570312 5.710938 -3.726562 5.421875 -3.84375 C 5.140625 -3.96875 4.753906 -4.101562 4.265625 -4.25 C 3.679688 -4.414062 3.207031 -4.578125 2.84375 -4.734375 C 2.476562 -4.890625 2.171875 -5.117188 1.921875 -5.421875 C 1.671875 -5.734375 1.546875 -6.132812 1.546875 -6.625 C 1.546875 -7.207031 1.703125 -7.707031 2.015625 -8.125 C 2.328125 -8.550781 2.765625 -8.878906 3.328125 -9.109375 C 3.898438 -9.335938 4.554688 -9.453125 5.296875 -9.453125 C 5.859375 -9.453125 6.390625 -9.378906 6.890625 -9.234375 C 7.398438 -9.097656 7.832031 -8.90625 8.1875 -8.65625 L 7.78125 -7.84375 C 7.4375 -8.09375 7.046875 -8.28125 6.609375 -8.40625 C 6.171875 -8.539062 5.710938 -8.609375 5.234375 -8.609375 C 4.410156 -8.609375 3.75 -8.4375 3.25 -8.09375 C 2.75 -7.757812 2.5 -7.300781 2.5 -6.71875 C 2.5 -6.394531 2.597656 -6.128906 2.796875 -5.921875 C 2.992188 -5.722656 3.238281 -5.5625 3.53125 -5.4375 C 3.820312 -5.320312 4.210938 -5.191406 4.703125 -5.046875 C 5.285156 -4.878906 5.753906 -4.71875 6.109375 -4.5625 C 6.460938 -4.40625 6.765625 -4.179688 7.015625 -3.890625 C 7.265625 -3.597656 7.390625 -3.21875 7.390625 -2.75 C 7.390625 -2.15625 7.226562 -1.644531 6.90625 -1.21875 C 6.582031 -0.800781 6.128906 -0.476562 5.546875 -0.25 C 4.972656 -0.03125 4.3125 0.078125 3.5625 0.078125 Z M 3.5625 0.078125 "/></g></g><g style="fill:#ffffff;fill-opacity:1;"><g transform="translate(83.694056, 33.848046)"><path style="stroke:none" d="M 10.53125 -9.375 L 8.65625 0 L 7.671875 0 L 8.53125 -4.3125 L 2.671875 -4.3125 L 1.8125 0 L 0.828125 0 L 2.703125 -9.375 L 3.6875 -9.375 L 2.859375 -5.203125 L 8.71875 -5.203125 L 9.546875 -9.375 Z M 10.53125 -9.375 "/></g></g><g style="fill:#ffffff;fill-opacity:1;"><g transform="translate(94.583864, 33.848046)"><path style="stroke:none" d="M 5.203125 0.078125 C 4.285156 0.078125 3.5 -0.0820312 2.84375 -0.40625 C 2.195312 -0.726562 1.703125 -1.179688 1.359375 -1.765625 C 1.023438 -2.359375 0.859375 -3.039062 0.859375 -3.8125 C 0.859375 -4.84375 1.085938 -5.785156 1.546875 -6.640625 C 2.015625 -7.503906 2.675781 -8.1875 3.53125 -8.6875 C 4.394531 -9.195312 5.382812 -9.453125 6.5 -9.453125 C 7.414062 -9.453125 8.195312 -9.285156 8.84375 -8.953125 C 9.5 -8.628906 10 -8.175781 10.34375 -7.59375 C 10.6875 -7.007812 10.859375 -6.332031 10.859375 -5.5625 C 10.859375 -4.53125 10.625 -3.582031 10.15625 -2.71875 C 9.6875 -1.863281 9.019531 -1.179688 8.15625 -0.671875 C 7.300781 -0.171875 6.316406 0.078125 5.203125 0.078125 Z M 5.296875 -0.796875 C 6.191406 -0.796875 6.988281 -1.007812 7.6875 -1.4375 C 8.382812 -1.863281 8.921875 -2.4375 9.296875 -3.15625 C 9.679688 -3.875 9.875 -4.660156 9.875 -5.515625 C 9.875 -6.441406 9.570312 -7.179688 8.96875 -7.734375 C 8.375 -8.285156 7.523438 -8.5625 6.421875 -8.5625 C 5.515625 -8.5625 4.710938 -8.347656 4.015625 -7.921875 C 3.316406 -7.503906 2.773438 -6.9375 2.390625 -6.21875 C 2.015625 -5.5 1.828125 -4.71875 1.828125 -3.875 C 1.828125 -2.9375 2.125 -2.1875 2.71875 -1.625 C 3.320312 -1.070312 4.179688 -0.796875 5.296875 -0.796875 Z M 5.296875 -0.796875 "/></g></g><g style="fill:#ffffff;fill-opacity:1;"><g transform="translate(105.821926, 33.848046)"><path style="stroke:none" d="M 6.0625 -9.375 C 7.113281 -9.375 7.929688 -9.140625 8.515625 -8.671875 C 9.109375 -8.210938 9.40625 -7.5625 9.40625 -6.71875 C 9.40625 -5.519531 9.019531 -4.59375 8.25 -3.9375 C 7.476562 -3.28125 6.414062 -2.953125 5.0625 -2.953125 L 2.40625 -2.953125 L 1.8125 0 L 0.828125 0 L 2.703125 -9.375 Z M 5.078125 -3.828125 C 6.148438 -3.828125 6.972656 -4.0625 7.546875 -4.53125 C 8.128906 -5.007812 8.421875 -5.707031 8.421875 -6.625 C 8.421875 -7.238281 8.207031 -7.707031 7.78125 -8.03125 C 7.363281 -8.351562 6.765625 -8.515625 5.984375 -8.515625 L 3.515625 -8.515625 L 2.578125 -3.828125 Z M 5.078125 -3.828125 "/></g></g><g style="fill:#ffffff;fill-opacity:1;"><g transform="translate(58.683271, 41.784403)"><path style="stroke:none" d="M 1.484375 0.0625 C 1.222656 0.0625 0.992188 0.0195312 0.796875 -0.0625 C 0.609375 -0.15625 0.460938 -0.28125 0.359375 -0.4375 C 0.253906 -0.601562 0.203125 -0.796875 0.203125 -1.015625 L 0.90625 -1.015625 C 0.90625 -0.859375 0.957031 -0.738281 1.0625 -0.65625 C 1.164062 -0.570312 1.304688 -0.53125 1.484375 -0.53125 C 1.628906 -0.53125 1.742188 -0.554688 1.828125 -0.609375 C 1.921875 -0.671875 1.96875 -0.753906 1.96875 -0.859375 C 1.96875 -0.972656 1.914062 -1.0625 1.8125 -1.125 C 1.707031 -1.195312 1.539062 -1.257812 1.3125 -1.3125 C 0.945312 -1.394531 0.671875 -1.515625 0.484375 -1.671875 C 0.304688 -1.828125 0.21875 -2.035156 0.21875 -2.296875 C 0.21875 -2.585938 0.320312 -2.816406 0.53125 -2.984375 C 0.75 -3.148438 1.039062 -3.234375 1.40625 -3.234375 C 1.65625 -3.234375 1.875 -3.191406 2.0625 -3.109375 C 2.25 -3.023438 2.390625 -2.90625 2.484375 -2.75 C 2.585938 -2.59375 2.640625 -2.40625 2.640625 -2.1875 L 1.953125 -2.1875 C 1.953125 -2.332031 1.90625 -2.441406 1.8125 -2.515625 C 1.71875 -2.597656 1.585938 -2.640625 1.421875 -2.640625 C 1.265625 -2.640625 1.140625 -2.609375 1.046875 -2.546875 C 0.960938 -2.492188 0.921875 -2.414062 0.921875 -2.3125 C 0.921875 -2.21875 0.96875 -2.132812 1.0625 -2.0625 C 1.164062 -2 1.335938 -1.9375 1.578125 -1.875 C 1.972656 -1.78125 2.257812 -1.65625 2.4375 -1.5 C 2.613281 -1.34375 2.703125 -1.140625 2.703125 -0.890625 C 2.703125 -0.585938 2.59375 -0.351562 2.375 -0.1875 C 2.15625 -0.0195312 1.859375 0.0625 1.484375 0.0625 Z M 1.484375 0.0625 "/></g></g><g style="fill:#ffffff;fill-opacity:1;"><g transform="translate(62.253884, 41.784403)"><path style="stroke:none" d="M 1.890625 0.0625 C 1.554688 0.0625 1.257812 -0.00390625 1 -0.140625 C 0.75 -0.285156 0.550781 -0.476562 0.40625 -0.71875 C 0.257812 -0.96875 0.1875 -1.253906 0.1875 -1.578125 C 0.1875 -1.910156 0.257812 -2.195312 0.40625 -2.4375 C 0.550781 -2.6875 0.75 -2.878906 1 -3.015625 C 1.257812 -3.160156 1.554688 -3.234375 1.890625 -3.234375 C 2.222656 -3.234375 2.515625 -3.160156 2.765625 -3.015625 C 3.015625 -2.878906 3.210938 -2.6875 3.359375 -2.4375 C 3.503906 -2.195312 3.578125 -1.910156 3.578125 -1.578125 C 3.578125 -1.253906 3.503906 -0.96875 3.359375 -0.71875 C 3.210938 -0.476562 3.015625 -0.285156 2.765625 -0.140625 C 2.515625 -0.00390625 2.222656 0.0625 1.890625 0.0625 Z M 0.921875 -1.578125 C 0.921875 -1.390625 0.960938 -1.222656 1.046875 -1.078125 C 1.128906 -0.929688 1.242188 -0.816406 1.390625 -0.734375 C 1.535156 -0.660156 1.703125 -0.625 1.890625 -0.625 C 2.078125 -0.625 2.238281 -0.660156 2.375 -0.734375 C 2.519531 -0.816406 2.632812 -0.929688 2.71875 -1.078125 C 2.800781 -1.222656 2.84375 -1.390625 2.84375 -1.578125 C 2.84375 -1.773438 2.800781 -1.945312 2.71875 -2.09375 C 2.632812 -2.238281 2.519531 -2.347656 2.375 -2.421875 C 2.238281 -2.503906 2.078125 -2.546875 1.890625 -2.546875 C 1.703125 -2.546875 1.535156 -2.503906 1.390625 -2.421875 C 1.242188 -2.347656 1.128906 -2.238281 1.046875 -2.09375 C 0.960938 -1.945312 0.921875 -1.773438 0.921875 -1.578125 Z M 0.921875 -1.578125 "/></g></g><g style="fill:#ffffff;fill-opacity:1;"><g transform="translate(66.6956, 41.784403)"><path style="stroke:none" d="M 0.375 0 L 0.375 -3.171875 L 1.09375 -3.171875 L 1.09375 -0.671875 L 2.484375 -0.671875 L 2.484375 0 Z M 0.375 0 "/></g></g><g style="fill:#ffffff;fill-opacity:1;"><g transform="translate(69.97131, 41.784403)"><path style="stroke:none" d="M 1.671875 0.0625 C 1.398438 0.0625 1.164062 0.0078125 0.96875 -0.09375 C 0.769531 -0.207031 0.613281 -0.363281 0.5 -0.5625 C 0.394531 -0.769531 0.34375 -1.019531 0.34375 -1.3125 L 0.34375 -3.171875 L 1.0625 -3.171875 L 1.0625 -1.359375 C 1.0625 -0.867188 1.265625 -0.625 1.671875 -0.625 C 2.078125 -0.625 2.28125 -0.867188 2.28125 -1.359375 L 2.28125 -3.171875 L 3 -3.171875 L 3 -1.3125 C 3 -1.019531 2.945312 -0.769531 2.84375 -0.5625 C 2.738281 -0.363281 2.585938 -0.207031 2.390625 -0.09375 C 2.191406 0.0078125 1.953125 0.0625 1.671875 0.0625 Z M 1.671875 0.0625 "/></g></g><g style="fill:#ffffff;fill-opacity:1;"><g transform="translate(73.99109, 41.784403)"><path style="stroke:none" d="M 1.140625 0 L 1.140625 -2.5 L 0.140625 -2.5 L 0.140625 -3.171875 L 2.875 -3.171875 L 2.875 -2.5 L 1.859375 -2.5 L 1.859375 0 Z M 1.140625 0 "/></g></g><g style="fill:#ffffff;fill-opacity:1;"><g transform="translate(77.661519, 41.784403)"><path style="stroke:none" d="M 0.375 0 L 0.375 -3.171875 L 1.09375 -3.171875 L 1.09375 0 Z M 0.375 0 "/></g></g><g style="fill:#ffffff;fill-opacity:1;"><g transform="translate(79.807515, 41.784403)"><path style="stroke:none" d="M 1.890625 0.0625 C 1.554688 0.0625 1.257812 -0.00390625 1 -0.140625 C 0.75 -0.285156 0.550781 -0.476562 0.40625 -0.71875 C 0.257812 -0.96875 0.1875 -1.253906 0.1875 -1.578125 C 0.1875 -1.910156 0.257812 -2.195312 0.40625 -2.4375 C 0.550781 -2.6875 0.75 -2.878906 1 -3.015625 C 1.257812 -3.160156 1.554688 -3.234375 1.890625 -3.234375 C 2.222656 -3.234375 2.515625 -3.160156 2.765625 -3.015625 C 3.015625 -2.878906 3.210938 -2.6875 3.359375 -2.4375 C 3.503906 -2.195312 3.578125 -1.910156 3.578125 -1.578125 C 3.578125 -1.253906 3.503906 -0.96875 3.359375 -0.71875 C 3.210938 -0.476562 3.015625 -0.285156 2.765625 -0.140625 C 2.515625 -0.00390625 2.222656 0.0625 1.890625 0.0625 Z M 0.921875 -1.578125 C 0.921875 -1.390625 0.960938 -1.222656 1.046875 -1.078125 C 1.128906 -0.929688 1.242188 -0.816406 1.390625 -0.734375 C 1.535156 -0.660156 1.703125 -0.625 1.890625 -0.625 C 2.078125 -0.625 2.238281 -0.660156 2.375 -0.734375 C 2.519531 -0.816406 2.632812 -0.929688 2.71875 -1.078125 C 2.800781 -1.222656 2.84375 -1.390625 2.84375 -1.578125 C 2.84375 -1.773438 2.800781 -1.945312 2.71875 -2.09375 C 2.632812 -2.238281 2.519531 -2.347656 2.375 -2.421875 C 2.238281 -2.503906 2.078125 -2.546875 1.890625 -2.546875 C 1.703125 -2.546875 1.535156 -2.503906 1.390625 -2.421875 C 1.242188 -2.347656 1.128906 -2.238281 1.046875 -2.09375 C 0.960938 -1.945312 0.921875 -1.773438 0.921875 -1.578125 Z M 0.921875 -1.578125 "/></g></g><g style="fill:#ffffff;fill-opacity:1;"><g transform="translate(84.249232, 41.784403)"><path style="stroke:none" d="M 0.375 0 L 0.375 -3.171875 L 1 -3.171875 L 2.390625 -1.234375 L 2.390625 -3.171875 L 3.109375 -3.171875 L 3.109375 0 L 2.5 0 L 1.09375 -1.9375 L 1.09375 0 Z M 0.375 0 "/></g></g><g style="fill:#ffffff;fill-opacity:1;"><g transform="translate(88.405121, 41.784403)"><path style="stroke:none" d="M 1.484375 0.0625 C 1.222656 0.0625 0.992188 0.0195312 0.796875 -0.0625 C 0.609375 -0.15625 0.460938 -0.28125 0.359375 -0.4375 C 0.253906 -0.601562 0.203125 -0.796875 0.203125 -1.015625 L 0.90625 -1.015625 C 0.90625 -0.859375 0.957031 -0.738281 1.0625 -0.65625 C 1.164062 -0.570312 1.304688 -0.53125 1.484375 -0.53125 C 1.628906 -0.53125 1.742188 -0.554688 1.828125 -0.609375 C 1.921875 -0.671875 1.96875 -0.753906 1.96875 -0.859375 C 1.96875 -0.972656 1.914062 -1.0625 1.8125 -1.125 C 1.707031 -1.195312 1.539062 -1.257812 1.3125 -1.3125 C 0.945312 -1.394531 0.671875 -1.515625 0.484375 -1.671875 C 0.304688 -1.828125 0.21875 -2.035156 0.21875 -2.296875 C 0.21875 -2.585938 0.320312 -2.816406 0.53125 -2.984375 C 0.75 -3.148438 1.039062 -3.234375 1.40625 -3.234375 C 1.65625 -3.234375 1.875 -3.191406 2.0625 -3.109375 C 2.25 -3.023438 2.390625 -2.90625 2.484375 -2.75 C 2.585938 -2.59375 2.640625 -2.40625 2.640625 -2.1875 L 1.953125 -2.1875 C 1.953125 -2.332031 1.90625 -2.441406 1.8125 -2.515625 C 1.71875 -2.597656 1.585938 -2.640625 1.421875 -2.640625 C 1.265625 -2.640625 1.140625 -2.609375 1.046875 -2.546875 C 0.960938 -2.492188 0.921875 -2.414062 0.921875 -2.3125 C 0.921875 -2.21875 0.96875 -2.132812 1.0625 -2.0625 C 1.164062 -2 1.335938 -1.9375 1.578125 -1.875 C 1.972656 -1.78125 2.257812 -1.65625 2.4375 -1.5 C 2.613281 -1.34375 2.703125 -1.140625 2.703125 -0.890625 C 2.703125 -0.585938 2.59375 -0.351562 2.375 -0.1875 C 2.15625 -0.0195312 1.859375 0.0625 1.484375 0.0625 Z M 1.484375 0.0625 "/></g></g><path style="fill:none;stroke-width:3;stroke-linecap:butt;stroke-linejoin:miter;stroke:#ffffff;stroke-opacity:1;stroke-miterlimit:4;" d="M 0.00678103 1.500376 L 58.299637 1.500376 " transform="matrix(0.242445,-0.000000000000000241,0.000000000000000241,0.242445,39.517887,39.636241)"/><path style="fill:none;stroke-width:3;stroke-linecap:butt;stroke-linejoin:miter;stroke:#ffffff;stroke-opacity:1;stroke-miterlimit:4;" d="M 0.00801598 1.500376 L 58.300872 1.500376 " transform="matrix(0.242445,-0.000000000000000241,0.000000000000000241,0.242445,96.2754,39.636241)"/></g></svg>